<svg width="12" height="12" viewBox="0 0 12 12" fill="none" xmlns="http://www.w3.org/2000/svg">
<path d="M8.57812 1.5C7.98122 1.5 7.43397 1.68504 6.95161 2.04999C6.48916 2.39987 6.18126 2.84551 6 3.16956C5.81874 2.84549 5.51084 2.39987 5.04839 2.04999C4.56603 1.68504 4.01878 1.5 3.42188 1.5C1.75615 1.5 0.5 2.83288 0.5 4.6004C0.5 6.50995 2.06713 7.81643 4.43957 9.79426C4.84244 10.1301 5.29909 10.5109 5.77373 10.9169C5.83629 10.9705 5.91664 11 6 11C6.08336 11 6.16371 10.9705 6.22627 10.9169C6.70095 10.5108 7.15758 10.1301 7.56069 9.79405C9.93287 7.81643 11.5 6.50995 11.5 4.6004C11.5 2.83288 10.2439 1.5 8.57812 1.5Z" fill="#FC5C7D"/>
</svg>
