<svg width="24" height="24" viewBox="0 0 24 24" fill="none" xmlns="http://www.w3.org/2000/svg">
<path d="M7.51364 12.0009C7.51364 11.164 7.74421 10.38 8.14479 9.70874V6.86133H5.29738C4.16727 8.32904 3.55469 10.1178 3.55469 12.0009C3.55469 13.8839 4.16727 15.6727 5.29738 17.1404H8.14479V14.293C7.74421 13.6217 7.51364 12.8378 7.51364 12.0009Z" fill="#FBBD00"/>
<path d="M12.001 16.4875L10.0215 18.467L12.001 20.4464C13.8841 20.4464 15.6728 19.8339 17.1405 18.7037V15.8594H14.2961C13.619 16.2614 12.8317 16.4875 12.001 16.4875Z" fill="#0F9D58"/>
<path d="M8.14428 14.293L5.29688 17.1404C5.52236 17.4333 5.76654 17.7114 6.0279 17.9729C7.62309 19.5681 9.744 20.4466 11.9999 20.4466V16.4876C10.3628 16.4876 8.92789 15.6061 8.14428 14.293Z" fill="#31AA52"/>
<path d="M20.4477 12.0002C20.4478 11.4871 20.4015 10.975 20.3094 10.4702L20.2352 10.0645H12.002V14.0234H16.0088C15.6254 14.7863 15.0314 15.4233 14.2971 15.859L17.1415 18.7033C17.4344 18.4779 17.7125 18.2337 17.974 17.9723C19.5692 16.3771 20.4477 14.2562 20.4477 12.0002Z" fill="#3C79E6"/>
<path d="M15.1736 8.82778L15.5235 9.17768L18.3229 6.37831L17.973 6.0284C16.3778 4.43321 14.2569 3.55469 12.001 3.55469L10.0215 5.53416L12.001 7.51364C13.1994 7.51364 14.3261 7.98033 15.1736 8.82778Z" fill="#CF2D48"/>
<path d="M12 7.51364V3.55469C9.74403 3.55469 7.62312 4.43321 6.0279 6.02837C5.76653 6.28983 5.52234 6.56792 5.29688 6.86091L8.14428 9.70831C8.92793 8.39516 10.3628 7.51364 12 7.51364Z" fill="#EB4132"/>
</svg>
