<svg width="20" height="20" viewBox="0 0 20 20" fill="none" xmlns="http://www.w3.org/2000/svg">
<path d="M3.22852 7.05762H16.3535M4.92494 1.66699V3.07341M14.4785 1.66699V3.07324M14.4785 3.07324H5.10352C3.55021 3.07324 2.29102 4.33244 2.29102 5.88574V15.2608C2.29102 16.8141 3.55021 18.0733 5.10352 18.0733H14.4785C16.0318 18.0733 17.291 16.8141 17.291 15.2608L17.291 5.88574C17.291 4.33244 16.0318 3.07324 14.4785 3.07324ZM17.291 12.6827H12.1348M12.1348 12.6827H7.44727M12.1348 12.6827V17.3702M12.1348 12.6827V7.52641M7.44727 12.6827H2.29102M7.44727 12.6827V17.3702M7.44727 12.6827V7.52641" stroke="#1C1C1C" stroke-width="1.5" stroke-linecap="round" stroke-linejoin="round"/>
</svg>
