<svg width="12" height="12" viewBox="0 0 12 12" fill="none" xmlns="http://www.w3.org/2000/svg">
<path d="M5.44472 1.58626C5.63519 1.07151 6.36324 1.07151 6.55372 1.58626L7.50177 4.14833C7.56166 4.31016 7.68925 4.43776 7.85109 4.49764L10.4132 5.44569C10.9279 5.63617 10.9279 6.36422 10.4132 6.5547L7.85109 7.50275C7.68925 7.56263 7.56166 7.69023 7.50177 7.85206L6.55372 10.4141C6.36325 10.9289 5.63519 10.9289 5.44472 10.4141L4.49667 7.85206C4.43678 7.69023 4.30919 7.56263 4.14735 7.50275L1.58528 6.5547C1.07053 6.36422 1.07053 5.63617 1.58528 5.44569L4.14735 4.49764C4.30919 4.43776 4.43678 4.31016 4.49667 4.14833L5.44472 1.58626Z" stroke="#9989EA" stroke-width="1.5" stroke-linejoin="round"/>
</svg>
