<svg width="16" height="16" viewBox="0 0 16 16" fill="none" xmlns="http://www.w3.org/2000/svg">
<path d="M7.36484 2.23461H3.36484C2.03936 2.23461 0.964844 3.30913 0.964844 4.63461V12.6347C0.964844 13.9602 2.03936 15.0347 3.36484 15.0347H11.3648C12.6903 15.0347 13.7648 13.9602 13.7648 12.6347L13.7648 8.63465M4.96484 11.0346L7.8755 10.4481C8.03002 10.417 8.1719 10.3409 8.28332 10.2294L14.7991 3.71007C15.1115 3.3975 15.1113 2.89084 14.7986 2.57853L13.4184 1.19981C13.1058 0.887637 12.5994 0.887849 12.2871 1.20029L5.77069 7.72032C5.65948 7.8316 5.58354 7.97318 5.55238 8.12738L4.96484 11.0346Z" stroke="#898989" stroke-width="1.5" stroke-linecap="round" stroke-linejoin="round"/>
</svg>
