<svg width="20" height="20" viewBox="0 0 20 20" fill="none" xmlns="http://www.w3.org/2000/svg">
<path d="M7.29603 3.54654L8.30553 2.09581C8.49248 1.82716 8.79906 1.66699 9.12636 1.66699H10.4568C10.7829 1.66699 11.0885 1.82598 11.2757 2.09299L12.2741 3.51726M7.29603 3.54654C7.00699 3.95892 6.52654 4.16098 6.01658 4.12496M7.29603 3.54654C7.00558 3.95793 6.52654 4.16266 6.01658 4.12496M6.01658 4.12496L4.2275 4.01264C3.90665 3.99249 3.59568 4.12783 3.39176 4.37636L2.5533 5.39824C2.3371 5.66174 2.26999 6.01721 2.37526 6.34139L2.89364 7.93786M2.89364 7.93786C2.96774 8.17814 2.97723 8.43555 2.92419 8.67866M2.89364 7.93786C2.9688 8.17771 2.97793 8.43461 2.92384 8.68115M2.92419 8.67866C2.87046 8.9189 2.75526 9.14574 2.58422 9.32943M2.92419 8.67866L2.92384 8.68115M2.58422 9.32943L1.40676 10.5958C1.17836 10.8415 1.08833 11.1853 1.16702 11.5113L1.46056 12.7278C1.53899 13.0528 1.77463 13.3171 2.08853 13.4321L3.70633 14.025C3.94375 14.1169 4.14886 14.2663 4.30409 14.4544M2.58422 9.32943C2.75632 9.14724 2.87046 8.92113 2.92384 8.68115M4.30409 14.4544C4.45827 14.643 4.56328 14.8707 4.60402 15.1173M4.30409 14.4544C4.45968 14.643 4.56504 14.8701 4.60402 15.1173M4.30409 14.4544L4.30163 14.4517C4.29145 14.4393 4.28056 14.4265 4.27002 14.4145M4.60402 15.1173L4.87955 16.8097C4.93282 17.1369 5.14477 17.4165 5.44544 17.5561L6.64469 18.1129C6.93576 18.248 7.274 18.2352 7.55405 18.0786L9.07455 17.2279M9.07455 17.2279C9.29546 17.1038 9.54201 17.0416 9.78856 17.0413M9.07455 17.2279C9.162 17.1781 9.25367 17.1384 9.34779 17.1086C9.49073 17.0633 9.63964 17.041 9.78856 17.0413M9.78856 17.0413C9.91675 17.0415 10.0449 17.0585 10.17 17.092C10.2862 17.1231 10.3993 17.1685 10.5064 17.2279M9.78856 17.0413C10.0362 17.0409 10.2841 17.1032 10.5064 17.2279M10.5064 17.2279L12.1014 18.0913C12.3827 18.2436 12.7198 18.2521 13.0084 18.1143L14.2021 17.5441C14.5017 17.401 14.7108 17.1186 14.7601 16.7902L15.0065 15.1486M15.0065 15.1486C15.0454 14.9007 15.149 14.6713 15.3029 14.481M15.0065 15.1486C15.044 14.9002 15.1483 14.6711 15.3029 14.481M15.3029 14.481C15.4557 14.2926 15.6583 14.1426 15.8943 14.0498M15.3029 14.481C15.4553 14.2919 15.6572 14.1414 15.8943 14.0498M15.8943 14.0498L17.5314 13.4082C17.8394 13.2875 18.0678 13.0223 18.1414 12.6998L18.4236 11.4643C18.4971 11.1426 18.4072 10.8055 18.1834 10.5631L16.9971 9.27863M16.9971 9.27863C16.8229 9.0943 16.7014 8.87412 16.6424 8.64011M16.9971 9.27863C16.9153 9.19254 16.845 9.09842 16.7878 8.99863C16.7225 8.88532 16.6736 8.76471 16.6424 8.64011M16.6424 8.64011C16.5844 8.40777 16.5879 8.16157 16.6614 7.92326L17.1734 6.28199C17.2738 5.96019 17.2053 5.60947 16.9912 5.34908L16.1762 4.35779C15.9699 4.1069 15.6546 3.97182 15.3307 3.99555L13.564 4.12496M13.564 4.12496C13.3105 4.14286 13.0611 4.09456 12.8392 3.99065M13.564 4.12496C13.3101 4.14389 13.0611 4.0952 12.8392 3.99065M12.8392 3.99065C12.6158 3.88541 12.4198 3.72358 12.2741 3.51726M12.8392 3.99065C12.6154 3.88579 12.4191 3.72439 12.2741 3.51726M2.92384 8.68115L2.92455 8.6775M12.6126 10.0092C12.6126 11.5633 11.3244 12.8231 9.73552 12.8231C8.14666 12.8231 6.85843 11.5633 6.85843 10.0092C6.85843 8.45504 8.14666 7.19521 9.73552 7.19521C11.3244 7.19521 12.6126 8.45504 12.6126 10.0092Z" stroke="#9989EA" stroke-width="1.5"/>
</svg>
