<svg width="24" height="24" viewBox="0 0 24 24" fill="none" xmlns="http://www.w3.org/2000/svg">
<path d="M15.9248 9.13661C16.2177 8.84372 16.2177 8.36884 15.9248 8.07595C15.6319 7.78306 15.1571 7.78306 14.8642 8.07595L15.9248 9.13661ZM8.07595 14.8642C7.78305 15.1571 7.78305 15.6319 8.07595 15.9248C8.36884 16.2177 8.84371 16.2177 9.13661 15.9248L8.07595 14.8642ZM14.8642 15.9248C15.1571 16.2177 15.6319 16.2177 15.9248 15.9248C16.2177 15.6319 16.2177 15.1571 15.9248 14.8642L14.8642 15.9248ZM9.13661 8.07595C8.84371 7.78305 8.36884 7.78305 8.07595 8.07595C7.78305 8.36884 7.78305 8.84371 8.07595 9.13661L9.13661 8.07595ZM20.8504 12.0004C20.8504 16.8881 16.8881 20.8504 12.0004 20.8504V22.3504C17.7165 22.3504 22.3504 17.7165 22.3504 12.0004H20.8504ZM12.0004 20.8504C7.11267 20.8504 3.15039 16.8881 3.15039 12.0004H1.65039C1.65039 17.7165 6.28424 22.3504 12.0004 22.3504V20.8504ZM3.15039 12.0004C3.15039 7.11267 7.11267 3.15039 12.0004 3.15039V1.65039C6.28424 1.65039 1.65039 6.28424 1.65039 12.0004H3.15039ZM12.0004 3.15039C16.8881 3.15039 20.8504 7.11267 20.8504 12.0004H22.3504C22.3504 6.28424 17.7165 1.65039 12.0004 1.65039V3.15039ZM14.8642 8.07595L11.4701 11.4701L12.5307 12.5307L15.9248 9.13661L14.8642 8.07595ZM11.4701 11.4701L8.07595 14.8642L9.13661 15.9248L12.5307 12.5307L11.4701 11.4701ZM15.9248 14.8642L12.5307 11.4701L11.4701 12.5307L14.8642 15.9248L15.9248 14.8642ZM12.5307 11.4701L9.13661 8.07595L8.07595 9.13661L11.4701 12.5307L12.5307 11.4701Z" fill="#B6B6B6"/>
</svg>
